<?xml version="1.0" encoding="utf-8"?>
<!-- Generator: Adobe Illustrator 26.4.1, SVG Export Plug-In . SVG Version: 6.00 Build 0)  -->
<svg version="1.1" id="Layer_1" xmlns="http://www.w3.org/2000/svg" xmlns:xlink="http://www.w3.org/1999/xlink" x="0px" y="0px"
	 viewBox="0 0 186.3 51.8" style="enable-background:new 0 0 186.3 51.8;" xml:space="preserve">
<style type="text/css">
	.st0{fill:#1B2B57;}
</style>
<g>
	<path class="st0" d="M28.4,36.7H8.9v-4.4l12.9-16.2H9.2v-4.4h19.1v4.2L15.2,32.3h13.1V36.7z"/>
	<path class="st0" d="M31.6,11.7h4.8v25h-4.8V11.7z"/>
	<path class="st0" d="M46.1,11.5V16h-4.9v-4.5H46.1z M46.1,18.2v18.5h-4.9V18.2H46.1z"/>
	<path class="st0" d="M66.3,20.2c1.5,1.6,2.2,3.9,2.2,7c0,3.3-0.7,5.7-2.2,7.5c-1.5,1.7-3.4,2.6-5.7,2.6c-1.5,0-2.7-0.4-3.7-1.1
		c-0.5-0.4-1.1-1-1.6-1.8V44h-4.8V18.2h4.6v2.7c0.5-0.8,1.1-1.4,1.7-1.9c1.1-0.8,2.4-1.2,3.8-1.2C63,17.8,64.8,18.6,66.3,20.2z
		 M63.6,27.4c0-1.4-0.3-2.7-1-3.8C62,22.5,60.9,22,59.4,22c-1.8,0-3,0.8-3.6,2.5c-0.3,0.9-0.5,2-0.5,3.4c0,2.2,0.6,3.7,1.7,4.5
		c0.7,0.5,1.5,0.8,2.4,0.8c1.3,0,2.4-0.5,3.1-1.6C63.2,30.5,63.6,29.2,63.6,27.4z"/>
	<path class="st0" d="M87.1,31.5h-9.2l-1.7,5.1h-5.5l8.9-25h5.9l8.9,25h-5.7L87.1,31.5z M85.7,27.2l-3.1-9.8l-3.2,9.8H85.7z"/>
	<path class="st0" d="M114,11.7v25h-4.7v-2.6c-0.7,1.1-1.5,1.9-2.4,2.4c-0.9,0.5-2,0.7-3.3,0.7c-2.2,0-4-0.9-5.5-2.6s-2.2-4-2.2-6.7
		c0-3.2,0.7-5.6,2.2-7.5c1.5-1.8,3.4-2.7,5.8-2.7c1.1,0,2.1,0.2,3,0.7c0.9,0.5,1.6,1.2,2.1,2v-8.8H114z M101,27.5
		c0,1.7,0.3,3.1,1,4.1c0.7,1,1.7,1.5,3.1,1.5s2.4-0.5,3.1-1.5c0.7-1,1.1-2.3,1.1-4c0-2.3-0.6-3.9-1.7-4.9c-0.7-0.6-1.5-0.9-2.4-0.9
		c-1.4,0-2.5,0.5-3.1,1.6S101,26,101,27.5z"/>
	<path class="st0" d="M128.8,23.3c-0.4-0.9-1.2-1.3-2.4-1.3c-1.4,0-2.3,0.4-2.8,1.3c-0.3,0.5-0.4,1.3-0.4,2.3v11.1h-4.9V18.2h4.7
		v2.7c0.6-1,1.2-1.6,1.7-2.1c0.9-0.7,2.2-1.1,3.7-1.1c1.4,0,2.6,0.3,3.4,0.9c0.7,0.6,1.2,1.3,1.6,2.2c0.6-1.1,1.4-1.9,2.4-2.4
		c1-0.5,2.1-0.8,3.3-0.8c0.8,0,1.6,0.2,2.4,0.5c0.8,0.3,1.5,0.9,2.2,1.7c0.5,0.6,0.9,1.4,1.1,2.4c0.1,0.6,0.2,1.5,0.2,2.7l0,11.7h-5
		V24.9c0-0.7-0.1-1.3-0.3-1.7c-0.4-0.9-1.2-1.3-2.4-1.3c-1.3,0-2.3,0.6-2.8,1.7c-0.3,0.6-0.4,1.3-0.4,2.1v11h-4.9v-11
		C129.2,24.6,129,23.8,128.8,23.3z"/>
	<path class="st0" d="M154.3,11.5V16h-4.9v-4.5H154.3z M154.3,18.2v18.5h-4.9V18.2H154.3z"/>
	<path class="st0" d="M167.7,21.8c-1.6,0-2.8,0.7-3.4,2.1c-0.3,0.7-0.5,1.7-0.5,2.8v10H159V18.2h4.7v2.7c0.6-1,1.2-1.6,1.8-2.1
		c1-0.7,2.3-1.1,3.8-1.1c1.9,0,3.5,0.5,4.7,1.5c1.2,1,1.8,2.7,1.8,5v12.5h-5V25.4c0-1-0.1-1.7-0.4-2.2
		C170,22.2,169.1,21.8,167.7,21.8z"/>
</g>
</svg>
