<?xml version="1.0" encoding="utf-8"?>
<!-- Generator: Adobe Illustrator 26.4.1, SVG Export Plug-In . SVG Version: 6.00 Build 0)  -->
<svg version="1.1" id="Layer_1" xmlns="http://www.w3.org/2000/svg" xmlns:xlink="http://www.w3.org/1999/xlink" x="0px" y="0px"
	 viewBox="0 0 186.3 51.8" style="enable-background:new 0 0 186.3 51.8;" xml:space="preserve">
<style type="text/css">
	.st0{fill:#1B2B57;}
</style>
<g>
	<path class="st0" d="M12.4,36.7H7.6v-25h7.6l4.6,19.7l4.5-19.7h7.5v25h-4.9V19.8c0-0.5,0-1.2,0-2s0-1.6,0-2l-4.7,21h-5.1l-4.7-21
		c0,0.5,0,1.2,0,2s0,1.6,0,2V36.7z"/>
	<path class="st0" d="M36.9,20.2c1.3-1.6,3.5-2.4,6.6-2.4c2,0,3.8,0.4,5.4,1.2c1.6,0.8,2.4,2.3,2.4,4.6V32c0,0.6,0,1.3,0,2.1
		c0,0.6,0.1,1.1,0.3,1.3s0.4,0.4,0.7,0.6v0.7H47c-0.1-0.4-0.2-0.7-0.3-1.1c-0.1-0.3-0.1-0.7-0.1-1.1c-0.7,0.7-1.4,1.3-2.3,1.9
		c-1,0.6-2.2,0.9-3.5,0.9c-1.7,0-3.1-0.5-4.2-1.4c-1.1-1-1.6-2.3-1.6-4.1c0-2.3,0.9-3.9,2.6-4.9c1-0.6,2.4-1,4.2-1.2l1.6-0.2
		c0.9-0.1,1.5-0.3,1.9-0.4c0.7-0.3,1-0.8,1-1.4c0-0.8-0.3-1.3-0.8-1.6c-0.5-0.3-1.3-0.4-2.3-0.4c-1.1,0-2,0.3-2.4,0.8
		c-0.3,0.4-0.6,1-0.7,1.7h-4.7C35.7,22.6,36.1,21.2,36.9,20.2z M40.5,33.2c0.5,0.4,1,0.6,1.7,0.6c1,0,2-0.3,2.9-0.9s1.3-1.7,1.4-3.3
		v-1.8c-0.3,0.2-0.6,0.3-0.9,0.5c-0.3,0.1-0.7,0.2-1.3,0.3l-1.1,0.2c-1,0.2-1.7,0.4-2.2,0.7c-0.7,0.4-1.1,1.1-1.1,2.1
		C39.8,32.2,40.1,32.8,40.5,33.2z"/>
	<path class="st0" d="M55.7,11.7h4.8v25h-4.8V11.7z"/>
	<path class="st0" d="M65.3,11.7h4.8v25h-4.8V11.7z"/>
	<path class="st0" d="M89.9,31.5h-9.2L79,36.7h-5.5l8.9-25h5.9l8.9,25h-5.7L89.9,31.5z M88.5,27.2l-3.1-9.8l-3.2,9.8H88.5z"/>
	<path class="st0" d="M116.9,11.7v25h-4.7v-2.6c-0.7,1.1-1.5,1.9-2.4,2.4c-0.9,0.5-2,0.7-3.3,0.7c-2.2,0-4-0.9-5.5-2.6
		s-2.2-4-2.2-6.7c0-3.2,0.7-5.6,2.2-7.5c1.5-1.8,3.4-2.7,5.8-2.7c1.1,0,2.1,0.2,3,0.7c0.9,0.5,1.6,1.2,2.1,2v-8.8H116.9z
		 M103.8,27.5c0,1.7,0.3,3.1,1,4.1c0.7,1,1.7,1.5,3.1,1.5s2.4-0.5,3.1-1.5c0.7-1,1.1-2.3,1.1-4c0-2.3-0.6-3.9-1.7-4.9
		c-0.7-0.6-1.5-0.9-2.4-0.9c-1.4,0-2.5,0.5-3.1,1.6S103.8,26,103.8,27.5z"/>
	<path class="st0" d="M131.6,23.3c-0.4-0.9-1.2-1.3-2.4-1.3c-1.4,0-2.3,0.4-2.8,1.3c-0.3,0.5-0.4,1.3-0.4,2.3v11.1h-4.9V18.2h4.7
		v2.7c0.6-1,1.2-1.6,1.7-2.1c0.9-0.7,2.2-1.1,3.7-1.1c1.4,0,2.6,0.3,3.4,0.9c0.7,0.6,1.2,1.3,1.6,2.2c0.6-1.1,1.4-1.9,2.4-2.4
		c1-0.5,2.1-0.8,3.3-0.8c0.8,0,1.6,0.2,2.4,0.5c0.8,0.3,1.5,0.9,2.2,1.7c0.5,0.6,0.9,1.4,1.1,2.4c0.1,0.6,0.2,1.5,0.2,2.7l0,11.7h-5
		V24.9c0-0.7-0.1-1.3-0.3-1.7c-0.4-0.9-1.2-1.3-2.4-1.3c-1.3,0-2.3,0.6-2.8,1.7c-0.3,0.6-0.4,1.3-0.4,2.1v11H132v-11
		C132,24.6,131.9,23.8,131.6,23.3z"/>
	<path class="st0" d="M157.2,11.5V16h-4.9v-4.5H157.2z M157.2,18.2v18.5h-4.9V18.2H157.2z"/>
	<path class="st0" d="M170.6,21.8c-1.6,0-2.8,0.7-3.4,2.1c-0.3,0.7-0.5,1.7-0.5,2.8v10h-4.8V18.2h4.7v2.7c0.6-1,1.2-1.6,1.8-2.1
		c1-0.7,2.3-1.1,3.8-1.1c1.9,0,3.5,0.5,4.7,1.5c1.2,1,1.8,2.7,1.8,5v12.5h-5V25.4c0-1-0.1-1.7-0.4-2.2
		C172.8,22.2,171.9,21.8,170.6,21.8z"/>
</g>
</svg>
